<svg height="24" viewBox="0 0 24 24" width="24" xmlns="http://www.w3.org/2000/svg"><path d="m7.5 16a3.5 3.5 0 0 0 0-7 3.5 3.5 0 0 0 0 7zm0-5a1.5 1.5 0 1 1 -1.5 1.5 1.538 1.538 0 0 1 1.5-1.5zm2.5 6h-5a4.951 4.951 0 0 0 -5 5 2.006 2.006 0 0 0 2 2h11a2.006 2.006 0 0 0 2-2 4.951 4.951 0 0 0 -5-5zm-8 5a2.946 2.946 0 0 1 3-3h5a2.946 2.946 0 0 1 3 3zm22-19v8a2.946 2.946 0 0 1 -3 3h-3.7l-3.7 2.8a1.421 1.421 0 0 1 -.6.2c-.2 0-.3 0-.4-.1a.961.961 0 0 1 -.6-.9v-3a1 1 0 0 1 2 0v1l2.4-1.8a1.421 1.421 0 0 1 .6-.2h4a.945.945 0 0 0 1-1v-8a.945.945 0 0 0 -1-1h-12a.945.945 0 0 0 -1 1v3a.945.945 0 0 1 -1 1 .945.945 0 0 1 -1-1v-3a2.946 2.946 0 0 1 3-3h12a2.946 2.946 0 0 1 3 3zm-8 1v2h2a.945.945 0 0 1 1 1 .945.945 0 0 1 -1 1h-2v2a1 1 0 0 1 -2 0v-2h-2a.945.945 0 0 1 -1-1 .945.945 0 0 1 1-1h2v-2a1 1 0 0 1 2 0z"/></svg>